HIERARCHY
ROOT joint_0
{
	OFFSET 0.000000 0.000000 0.000000
	CHANNELS 6 Xposition Yposition Zposition Zrotation Yrotation Xrotation 
	JOINT joint_1
	{
		OFFSET -0.613770 -1.125488 108.300049
		CHANNELS 3 Zrotation Yrotation Xrotation
		JOINT joint_2
		{
			OFFSET -10.925537 -0.900513 98.259033
			CHANNELS 3 Zrotation Yrotation Xrotation
			JOINT joint_3
			{
				OFFSET -11.287842 0.313599 98.110962
				CHANNELS 3 Zrotation Yrotation Xrotation
				JOINT joint_4
				{
					OFFSET -2.124268 2.484680 136.491943
					CHANNELS 3 Zrotation Yrotation Xrotation
					JOINT joint_5
					{
						OFFSET 16.640869 1.801270 81.862061
						CHANNELS 3 Zrotation Yrotation Xrotation
						End Site
						{
							OFFSET 0.000000 0.000000 0.000000
						}
					}
				}
				JOINT joint_6
				{
					OFFSET 0.447998 -28.248108 77.258057
					CHANNELS 3 Zrotation Yrotation Xrotation
					JOINT joint_7
					{
						OFFSET 7.918701 -130.256348 -24.086060
						CHANNELS 3 Zrotation Yrotation Xrotation
						JOINT joint_8
						{
							OFFSET 62.431885 -29.384277 -258.572021
							CHANNELS 3 Zrotation Yrotation Xrotation
							JOINT joint_9
							{
								OFFSET 53.743164 -21.907532 -238.024963
								CHANNELS 3 Zrotation Yrotation Xrotation
								End Site
								{
									OFFSET 0.000000 0.000000 0.000000
								}
							}
						}
					}
				}
				JOINT joint_10
				{
					OFFSET -2.846924 31.052063 76.130981
					CHANNELS 3 Zrotation Yrotation Xrotation
					JOINT joint_11
					{
						OFFSET 9.073730 131.055603 -18.752930
						CHANNELS 3 Zrotation Yrotation Xrotation
						JOINT joint_12
						{
							OFFSET 52.981201 29.883301 -260.613037
							CHANNELS 3 Zrotation Yrotation Xrotation
							JOINT joint_13
							{
								OFFSET 62.237793 15.935547 -236.423035
								CHANNELS 3 Zrotation Yrotation Xrotation
								End Site
								{
									OFFSET 0.000000 0.000000 0.000000
								}
							}
						}
					}
				}
			}
		}
	}
	JOINT joint_14
	{
		OFFSET 22.046143 -72.816772 -98.122925
		CHANNELS 3 Zrotation Yrotation Xrotation
		JOINT joint_15
		{
			OFFSET -23.673828 -54.692932 -469.927032
			CHANNELS 3 Zrotation Yrotation Xrotation
			JOINT joint_16
			{
				OFFSET -34.875244 -46.505249 -395.890999
				CHANNELS 3 Zrotation Yrotation Xrotation
				JOINT joint_17
				{
					OFFSET 168.486328 14.224182 -74.182999
					CHANNELS 3 Zrotation Yrotation Xrotation
					End Site
					{
						OFFSET 0.000000 0.000000 0.000000
					}
				}
			}
		}
	}
	JOINT joint_18
	{
		OFFSET -1.731934 82.408569 -92.846924
		CHANNELS 3 Zrotation Yrotation Xrotation
		JOINT joint_19
		{
			OFFSET -6.908936 32.203369 -472.535034
			CHANNELS 3 Zrotation Yrotation Xrotation
			JOINT joint_20
			{
				OFFSET -13.963135 23.196533 -399.207993
				CHANNELS 3 Zrotation Yrotation Xrotation
				JOINT joint_21
				{
					OFFSET 168.417725 19.834229 -73.041004
					CHANNELS 3 Zrotation Yrotation Xrotation
					End Site
					{
						OFFSET 0.000000 0.000000 0.000000
					}
				}
			}
		}
	}
}
MOTION
Frames: 18
Frame Time: 0.016667
-2059.867432 1034.296265 1026.151001 8.175980 -0.693609 -3.644648 0.694013 11.812834 12.347612 6.212141 -0.974764 -2.724745 7.584602 1.482934 1.218850 0.502206 -0.860086 -2.241314 0.000000 0.000000 0.000000 1.880662 -11.507398 1.767065 -1.283884 -10.416191 -2.201142 1.216994 -9.840405 0.009289 0.000000 0.000000 0.000000 2.048004 11.677702 0.323125 -4.774169 11.946173 2.715273 -3.293796 -12.767181 -4.347558 0.000000 0.000000 0.000000 -2.656062 -14.315638 12.912934 -8.213192 30.813554 -4.461426 -4.400824 -14.304746 -0.523045 0.000000 0.000000 0.000000 -2.661845 -33.737030 8.690035 -0.644406 55.475477 -7.407057 2.525178 -0.781965 1.106907 0.000000 0.000000 0.000000 
-2032.481445 1037.586426 1034.665039 7.542773 -0.678340 -3.581982 1.424794 11.403649 12.270467 5.968385 -0.945378 -2.761965 7.191408 1.418850 1.233501 0.454752 -0.707911 -2.035151 0.000000 0.000000 0.000000 1.952249 -11.049521 1.360714 -1.473022 -9.943251 -1.463389 2.099319 -13.428432 3.063971 0.000000 0.000000 0.000000 2.084570 12.025359 0.301444 -5.021519 12.316309 2.613817 -3.388144 -11.843572 -5.446260 0.000000 0.000000 0.000000 -2.650474 -11.224017 12.724019 -7.077862 27.832083 -4.084606 -3.491201 -12.810930 -0.292705 0.000000 0.000000 0.000000 -1.624075 -33.137604 7.249376 0.410658 47.700991 -5.767325 2.890050 -1.285382 1.249918 0.000000 0.000000 0.000000 
-2004.931763 1041.187256 1042.427979 6.796931 -0.553990 -3.594873 2.141335 10.800460 12.202078 5.726340 -0.922656 -2.758943 6.809931 1.339833 1.262932 0.416160 -0.489957 -1.888432 0.000000 0.000000 0.000000 1.954965 -10.609039 1.057370 -1.822355 -9.484245 -0.830204 2.826743 -16.519669 6.288602 0.000000 0.000000 0.000000 2.193299 12.393597 0.221721 -5.234464 12.672455 2.503213 -3.419906 -10.976600 -6.237455 0.000000 0.000000 0.000000 -2.496372 -8.555190 12.456655 -6.007981 25.310433 -3.560918 -2.674805 -10.970166 -0.128499 0.000000 0.000000 0.000000 -0.775898 -32.130736 6.096267 1.226245 39.636947 -4.557732 2.681243 -1.550187 1.204753 0.000000 0.000000 0.000000 
-1977.311890 1045.137207 1049.352051 6.028311 -0.114751 -3.807964 2.784914 9.660720 12.305035 5.463032 -0.799354 -2.712378 6.417327 1.221468 1.306636 0.392651 -0.155378 -1.841755 0.000000 0.000000 0.000000 1.796475 -10.200635 0.789516 -2.245104 -9.075627 -0.252014 3.454921 -18.907602 9.692146 0.000000 0.000000 0.000000 2.461238 12.772192 0.103597 -5.405944 13.011835 2.324307 -3.349533 -10.178799 -6.568095 0.000000 0.000000 0.000000 -2.221734 -6.669389 12.234186 -5.094680 23.520359 -2.842076 -1.993884 -8.845577 -0.040627 0.000000 0.000000 0.000000 -0.269894 -30.929643 5.359476 1.589255 31.261659 -3.870155 1.862570 -2.328659 0.996283 0.000000 0.000000 0.000000 
-1949.530396 1049.396606 1055.524048 5.080469 0.401410 -4.192300 3.362356 8.379793 12.571259 5.252102 -0.671775 -2.681092 6.109221 1.059139 1.333379 0.377186 0.248938 -1.849603 0.000000 0.000000 0.000000 1.556274 -9.778854 0.510114 -2.716976 -8.659047 0.272261 4.020144 -20.780506 13.306081 0.000000 0.000000 0.000000 2.817715 13.171859 -0.008946 -5.536120 13.346393 2.082075 -3.205975 -9.419619 -6.592916 0.000000 0.000000 0.000000 -1.815246 -5.193302 12.088255 -4.223419 22.245975 -2.041908 -1.353720 -6.487161 0.012139 0.000000 0.000000 0.000000 0.021439 -29.300243 5.007244 1.531069 22.337909 -3.525560 0.925874 -2.982867 0.718589 0.000000 0.000000 0.000000 
-1921.563965 1053.546143 1059.959961 3.777562 0.689831 -4.690828 3.890669 7.436821 12.927770 5.186633 -0.659511 -2.731448 5.997980 0.882121 1.326554 0.355947 0.648674 -1.823358 0.000000 0.000000 0.000000 1.375577 -9.379141 0.309942 -3.213563 -8.249180 0.660104 4.479471 -22.085223 16.839533 0.000000 0.000000 0.000000 3.120607 13.589213 -0.078448 -5.589112 13.653446 1.861309 -3.030925 -8.803660 -6.436487 0.000000 0.000000 0.000000 -1.263374 -3.865431 12.064110 -3.352625 21.655582 -1.369346 -0.682900 -4.219158 0.085075 0.000000 0.000000 0.000000 0.317083 -27.502013 5.040264 1.307585 14.264987 -3.262113 0.437737 -2.824945 0.513715 0.000000 0.000000 0.000000 
-1893.178223 1057.432739 1062.428955 2.533002 0.972063 -5.186890 4.199299 6.319688 13.126902 5.103501 -0.588380 -2.745391 5.885131 0.698589 1.341546 0.321634 1.053627 -1.724928 0.000000 0.000000 0.000000 1.302660 -8.987664 0.219269 -3.737971 -7.827094 0.841342 4.846900 -22.728634 20.343091 0.000000 0.000000 0.000000 3.315774 14.095460 -0.131969 -5.568559 13.984079 1.702591 -2.827707 -8.436161 -6.075176 0.000000 0.000000 0.000000 -0.722423 -2.867603 12.062460 -2.622027 21.760238 -0.817966 -0.074428 -2.240538 0.154209 0.000000 0.000000 0.000000 0.581355 -26.104794 5.275697 1.044547 7.822487 -3.160762 0.222043 -3.167095 0.474772 0.000000 0.000000 0.000000 
-1864.608643 1061.210205 1063.161011 1.447361 1.274433 -5.653265 4.300662 5.025823 13.154215 4.969625 -0.433580 -2.682347 5.720916 0.512800 1.370744 0.279714 1.463924 -1.583157 0.000000 0.000000 0.000000 1.269792 -8.605233 0.161598 -4.250893 -7.407180 0.902382 5.140846 -22.845774 23.753994 0.000000 0.000000 0.000000 3.448362 14.617623 -0.169967 -5.477182 14.297563 1.589396 -2.593319 -8.203700 -5.536385 0.000000 0.000000 0.000000 -0.227835 -2.237379 12.016890 -2.057506 22.567457 -0.300290 0.475580 -0.491850 0.211317 0.000000 0.000000 0.000000 0.751958 -25.005026 5.582159 0.769545 2.692951 -3.160161 0.082322 -4.234920 0.554692 0.000000 0.000000 0.000000 
-1836.541626 1064.923584 1061.857056 0.322842 1.245725 -6.065694 4.353127 4.293257 13.119613 4.905955 -0.363550 -2.651618 5.643242 0.399647 1.359962 0.233946 1.796358 -1.404821 0.000000 0.000000 0.000000 1.217790 -8.282423 0.104222 -4.641968 -7.060174 0.989705 5.356491 -22.808550 26.538074 0.000000 0.000000 0.000000 3.487472 14.936637 -0.166089 -5.269998 14.428853 1.577887 -2.361830 -7.898854 -5.022490 0.000000 0.000000 0.000000 0.284120 -1.743645 11.892031 -1.600396 24.270867 0.173255 1.073289 1.026379 0.294180 0.000000 0.000000 0.000000 0.913426 -24.090094 5.830200 0.709290 -0.283247 -2.983485 0.154528 -4.977107 0.676974 0.000000 0.000000 0.000000 
-1809.114868 1068.411743 1058.305054 -0.873195 0.781852 -6.379666 4.409517 4.291824 12.918263 4.943127 -0.397480 -2.660529 5.680526 0.423018 1.319411 0.178532 2.034232 -1.165754 0.000000 0.000000 0.000000 1.079445 -8.046664 0.070370 -4.855353 -6.830143 1.160307 5.517189 -22.769760 28.486226 0.000000 0.000000 0.000000 3.436719 14.982757 -0.111553 -4.928399 14.316813 1.799874 -2.165054 -7.507933 -4.648724 0.000000 0.000000 0.000000 0.791328 -1.326703 11.700253 -1.272759 26.978742 0.516442 1.710349 2.405266 0.384432 0.000000 0.000000 0.000000 1.114197 -23.471777 5.972104 1.066200 -0.139593 -2.718018 0.463989 -5.905006 0.904888 0.000000 0.000000 0.000000 
-1782.191528 1071.834717 1052.718018 -1.934095 0.099485 -6.522459 4.384794 4.635445 12.434113 4.975176 -0.456281 -2.625501 5.709561 0.539408 1.267233 0.117586 2.205963 -0.890743 0.000000 0.000000 0.000000 0.907910 -7.857789 0.059416 -4.932415 -6.666531 1.330522 5.648665 -22.699563 29.800812 0.000000 0.000000 0.000000 3.280420 14.835326 -0.037368 -4.470884 14.032397 2.187627 -1.973629 -7.047766 -4.307257 0.000000 0.000000 0.000000 1.258898 -1.107105 11.342368 -1.115513 30.496680 0.811459 2.333441 3.793090 0.440081 0.000000 0.000000 0.000000 1.296825 -23.202250 5.927927 1.683038 2.338093 -2.500817 0.891011 -7.055209 1.200600 0.000000 0.000000 0.000000 
-1756.041992 1075.724854 1045.432983 -2.639395 -0.616618 -6.428757 4.189380 5.135706 11.755412 4.889008 -0.526102 -2.546495 5.617132 0.673239 1.188364 0.070217 2.307743 -0.664199 0.000000 0.000000 0.000000 0.838706 -7.666791 0.034027 -4.907874 -6.500657 1.419894 5.762005 -22.737864 30.544098 0.000000 0.000000 0.000000 2.964864 14.501777 -0.015269 -3.903417 13.604220 2.554704 -1.734919 -6.364122 -3.868926 0.000000 0.000000 0.000000 1.725210 -1.195103 10.606487 -1.119118 34.590346 1.335287 3.000159 5.352923 0.462180 0.000000 0.000000 0.000000 1.368371 -23.240282 5.496313 2.244486 5.644225 -2.136180 1.353841 -6.768743 1.338812 0.000000 0.000000 0.000000 
-1730.635620 1080.632568 1035.671021 -2.935716 -1.364360 -6.022173 3.804106 5.798200 10.838788 4.631101 -0.622561 -2.395951 5.339555 0.803593 1.086555 0.046007 2.329397 -0.526534 0.000000 0.000000 0.000000 0.981909 -7.445805 -0.011004 -4.817890 -6.290422 1.349871 5.856100 -23.039057 30.718714 0.000000 0.000000 0.000000 2.383097 14.023978 -0.142198 -3.238530 13.074718 2.943826 -1.471713 -5.399645 -3.428965 0.000000 0.000000 0.000000 2.303243 -1.510311 9.241456 -1.212805 39.164773 2.352502 3.926881 7.633004 0.467851 0.000000 0.000000 0.000000 1.324367 -23.584551 4.436511 2.651306 9.224952 -1.391937 1.950306 -2.643967 1.069736 0.000000 0.000000 0.000000 
-1706.002930 1086.006348 1024.213013 -3.080538 -2.191102 -5.383670 3.386064 6.694501 9.699483 4.284955 -0.771173 -2.207956 4.959999 0.955079 0.964674 0.029180 2.276200 -0.412322 0.000000 0.000000 0.000000 1.229964 -7.234007 -0.032531 -4.646906 -6.089209 1.180761 5.921331 -23.445106 30.328962 0.000000 0.000000 0.000000 1.646974 13.360673 -0.357131 -2.490880 12.409488 3.438993 -1.184971 -4.198760 -2.929461 0.000000 0.000000 0.000000 2.960968 -2.026907 7.487898 -1.413307 44.098555 3.541421 5.092785 10.731887 0.435699 0.000000 0.000000 0.000000 1.272862 -24.144279 3.020469 3.029769 13.228536 -0.466137 2.698365 3.793036 0.595435 0.000000 0.000000 0.000000 
-1682.503784 1090.715210 1013.734985 -3.151224 -2.899523 -4.635513 3.019224 7.598721 8.388818 3.903672 -0.926375 -2.003169 4.537613 1.139200 0.826514 0.002551 2.176459 -0.252825 0.000000 0.000000 0.000000 1.377585 -7.084929 0.022792 -4.351862 -5.979338 1.029061 5.951231 -23.612500 29.433602 0.000000 0.000000 0.000000 1.005100 12.389139 -0.545840 -1.674935 11.497024 3.948403 -0.771484 -2.725537 -1.970232 0.000000 0.000000 0.000000 3.466532 -3.068714 5.773937 -1.901404 49.328519 4.354556 6.034680 13.726242 0.324275 0.000000 0.000000 0.000000 1.228629 -24.895489 1.689719 3.436651 17.758209 0.176428 3.338669 7.244178 0.443230 0.000000 0.000000 0.000000 
-1660.672852 1094.133545 1004.773987 -2.949908 -3.357880 -3.645866 2.679393 8.403351 6.590373 3.425091 -1.044641 -1.689826 3.986478 1.400859 0.675178 -0.053440 1.995419 0.044015 0.000000 0.000000 0.000000 1.305819 -7.114032 0.296394 -3.882588 -6.105608 0.927187 5.916898 -23.297042 27.878585 0.000000 0.000000 0.000000 0.514155 10.986482 -0.789727 -0.773938 10.185188 4.638222 -0.128748 -0.726653 -0.268182 0.000000 0.000000 0.000000 3.725239 -5.010316 4.050870 -2.862443 55.443944 4.586984 6.423672 16.252746 0.121834 0.000000 0.000000 0.000000 1.135758 -26.240755 0.405468 3.930147 24.057094 0.325371 3.781242 4.359448 0.948222 0.000000 0.000000 0.000000 
-1639.974365 1096.888184 996.793030 -2.821143 -3.765771 -2.527721 2.511391 9.345276 4.595845 2.921688 -1.212632 -1.334442 3.384677 1.679881 0.497846 -0.121294 1.757325 0.392554 0.000000 0.000000 0.000000 1.150436 -7.198917 0.686377 -3.296433 -6.332112 0.850210 5.801683 -22.709695 25.796679 0.000000 0.000000 0.000000 0.145030 9.294193 -1.123109 0.117868 8.587107 5.486728 0.670487 1.545593 1.974160 0.000000 0.000000 0.000000 3.926315 -7.430035 2.344128 -3.998368 61.830380 4.318823 6.178276 18.640541 -0.098466 0.000000 0.000000 0.000000 1.069207 -27.637361 -0.747668 4.452115 31.043764 0.104136 4.270061 -1.202198 1.806978 0.000000 0.000000 0.000000 
-1619.161133 1099.720581 990.866028 -3.068426 -4.147397 -1.640252 2.567114 10.225633 3.056780 2.495745 -1.407441 -1.040458 2.871174 1.891304 0.332406 -0.152566 1.579185 0.559157 0.000000 0.000000 0.000000 1.082787 -7.058352 0.897321 -2.725484 -6.324949 0.781358 5.640017 -22.206415 23.662880 0.000000 0.000000 0.000000 -0.011486 7.571955 -1.450784 0.855799 6.947075 6.116378 1.498874 3.395167 4.499188 0.000000 0.000000 0.000000 4.178649 -9.803980 0.992501 -4.867413 67.129277 3.880649 5.153199 19.858992 -0.263653 0.000000 0.000000 0.000000 1.034640 -28.178411 -1.495823 4.924843 36.258220 -0.318780 4.802601 -5.629810 2.599798 0.000000 0.000000 0.000000 
